<?xml version="1.0" encoding="UTF-8" standalone="no"?>
<!-- Created with Inkscape (http://www.inkscape.org/) -->

<svg
   version="1.1"
   id="svg1"
   width="504"
   height="336"
   viewBox="0 0 504 336"
   sodipodi:docname="Fig_aDDM_example.svg"
   xml:space="preserve"
   inkscape:version="1.3 (0e150ed, 2023-07-21)"
   xmlns:inkscape="http://www.inkscape.org/namespaces/inkscape"
   xmlns:sodipodi="http://sodipodi.sourceforge.net/DTD/sodipodi-0.dtd"
   xmlns="http://www.w3.org/2000/svg"
   xmlns:svg="http://www.w3.org/2000/svg"><defs
     id="defs1"><clipPath
       clipPathUnits="userSpaceOnUse"
       id="clipPath4"><path
         d="M 60.789,14.172 H 349.652 V 212.555 H 60.789 Z"
         id="path4" /></clipPath><clipPath
       clipPathUnits="userSpaceOnUse"
       id="clipPath6"><path
         d="M 60.789,14.172 H 349.652 V 212.555 H 60.789 Z"
         id="path6" /></clipPath><clipPath
       clipPathUnits="userSpaceOnUse"
       id="clipPath7"><path
         d="M 60.789,14.172 H 349.652 V 212.555 H 60.789 Z"
         transform="translate(-106.26563,-44.445314)"
         id="path7" /></clipPath><clipPath
       clipPathUnits="userSpaceOnUse"
       id="clipPath9"><path
         d="M 60.789,14.172 H 349.652 V 212.555 H 60.789 Z"
         id="path9" /></clipPath><clipPath
       clipPathUnits="userSpaceOnUse"
       id="clipPath10"><path
         d="M 60.789,14.172 H 349.652 V 212.555 H 60.789 Z"
         transform="translate(-163.28125,-44.445314)"
         id="path10" /></clipPath><clipPath
       clipPathUnits="userSpaceOnUse"
       id="clipPath12"><path
         d="M 60.789,14.172 H 349.652 V 212.555 H 60.789 Z"
         id="path12" /></clipPath><clipPath
       clipPathUnits="userSpaceOnUse"
       id="clipPath13"><path
         d="M 60.789,14.172 H 349.652 V 212.555 H 60.789 Z"
         transform="translate(-256.80079,-44.445314)"
         id="path13" /></clipPath><clipPath
       clipPathUnits="userSpaceOnUse"
       id="clipPath15"><path
         d="M 60.789,14.172 H 349.652 V 212.555 H 60.789 Z"
         id="path15" /></clipPath><clipPath
       clipPathUnits="userSpaceOnUse"
       id="clipPath17"><path
         d="m 60.789,112 h 288.863 v 2 H 60.789 Z"
         id="path17" /></clipPath><clipPath
       clipPathUnits="userSpaceOnUse"
       id="clipPath19"><path
         d="M 60.789,30 H 347 v 2 H 60.789 Z"
         id="path19" /></clipPath><clipPath
       clipPathUnits="userSpaceOnUse"
       id="clipPath21"><path
         d="M 60.789,194 H 347 v 2 H 60.789 Z"
         id="path21" /></clipPath></defs><sodipodi:namedview
     id="namedview1"
     pagecolor="#ffffff"
     bordercolor="#000000"
     borderopacity="0.25"
     inkscape:showpageshadow="2"
     inkscape:pageopacity="0.0"
     inkscape:pagecheckerboard="0"
     inkscape:deskcolor="#d1d1d1"
     inkscape:zoom="0.66345567"
     inkscape:cx="258.49504"
     inkscape:cy="171.82761"
     inkscape:window-width="1472"
     inkscape:window-height="831"
     inkscape:window-x="0"
     inkscape:window-y="37"
     inkscape:window-maximized="1"
     inkscape:current-layer="g1"><inkscape:page
       x="0"
       y="0"
       inkscape:label="1"
       id="page1"
       width="504"
       height="336"
       margin="0"
       bleed="0" /></sodipodi:namedview><g
     id="g1"
     inkscape:groupmode="layer"
     inkscape:label="1"><path
       id="path1"
       d="M 0,0 H 378 V 252 H 0 Z"
       style="fill:#ffffff;fill-opacity:1;fill-rule:nonzero;stroke:none"
       transform="scale(1.3333333)" /><path
       id="path2"
       d="M 0,0 H 378 V 252 H 0 Z"
       style="fill:#ffffff;fill-opacity:1;fill-rule:nonzero;stroke:#ffffff;stroke-width:1.06698;stroke-linecap:round;stroke-linejoin:round;stroke-miterlimit:10;stroke-dasharray:none;stroke-opacity:1"
       transform="scale(1.3333333)" /><path
       id="path3"
       d="M 60.789,14.172 H 349.652 V 212.555 H 60.789 Z"
       style="fill:#ffffff;fill-opacity:1;fill-rule:nonzero;stroke:none"
       transform="scale(1.3333333)"
       clip-path="url(#clipPath4)" /><path
       id="path5"
       d="M 87.203,32.211 H 140.34 V 194.524 H 87.203 Z"
       style="fill:#ffd9d9;fill-opacity:1;fill-rule:nonzero;stroke:none"
       transform="scale(1.3333333)"
       clip-path="url(#clipPath6)" /><text
       id="text6"
       xml:space="preserve"
       transform="matrix(1.3333333,0,0,1.3333333,141.6875,59.260417)"
       clip-path="url(#clipPath7)"><tspan
         style="font-variant:normal;font-weight:normal;font-size:9px;font-family:Arial;writing-mode:lr-tb;fill:#000000;fill-opacity:1;fill-rule:nonzero;stroke:none"
         x="0 5.0040002 10.008 12.501"
         y="0"
         sodipodi:role="line"
         id="tspan6">Left</tspan></text><path
       id="path8"
       d="m 143.277,32.211 h 61.016 v 162.313 h -61.016 z"
       style="fill:#ffffd9;fill-opacity:1;fill-rule:nonzero;stroke:none"
       transform="scale(1.3333333)"
       clip-path="url(#clipPath9)" /><text
       id="text9"
       xml:space="preserve"
       transform="matrix(1.3333333,0,0,1.3333333,217.70833,59.260417)"
       clip-path="url(#clipPath10)"><tspan
         style="font-variant:normal;font-weight:normal;font-size:9px;font-family:Arial;writing-mode:lr-tb;fill:#000000;fill-opacity:1;fill-rule:nonzero;stroke:none"
         x="0 6.4980001 8.4960003 13.5 18.504"
         y="0"
         sodipodi:role="line"
         id="tspan9">Right</tspan></text><path
       id="path11"
       d="M 211.863,32.211 H 316.75 V 194.524 H 211.863 Z"
       style="fill:#ffd9d9;fill-opacity:1;fill-rule:nonzero;stroke:none"
       transform="scale(1.3333333)"
       clip-path="url(#clipPath12)" /><text
       id="text12"
       xml:space="preserve"
       transform="matrix(1.3333333,0,0,1.3333333,342.40104,59.260417)"
       clip-path="url(#clipPath13)"><tspan
         style="font-variant:normal;font-weight:normal;font-size:9px;font-family:Arial;writing-mode:lr-tb;fill:#000000;fill-opacity:1;fill-rule:nonzero;stroke:none"
         x="0 5.0040002 10.008 12.501"
         y="0"
         sodipodi:role="line"
         id="tspan12">Left</tspan></text><path
       id="path14"
       d="m 74.074,111.727 0.156,-1.426 0.153,0.73 0.156,-0.433 0.152,0.886 0.157,-0.55 0.152,-0.02 0.156,-0.234 0.157,-1.563 0.152,-0.879 0.156,0.957 0.152,3.543 0.157,2.164 0.152,-1.328 0.156,-2.199 0.153,-1.133 0.156,0.528 0.152,0.191 0.156,0.695 0.157,1.367 0.152,1.336 0.156,-1.3 0.153,-0.293 0.156,1.015 0.152,2.071 0.157,-1.383 0.152,1.304 0.156,-4.046 0.152,-2.204 0.157,1.243 0.156,0.957 0.152,2.582 0.157,2.058 0.152,0.84 0.156,-0.168 0.152,2.172 0.157,-1.16 0.152,-3 0.156,-0.203 0.153,1.597 0.156,-1.109 0.156,-0.652 0.153,3.91 0.156,-1.621 0.152,0.019 0.156,-2.316 0.153,1.019 0.156,-1.562 0.152,1.101 0.157,0.833 0.152,-0.77 0.156,-0.777 0.156,-0.914 0.153,0.671 0.156,0.411 0.152,0.8 0.157,2.321 0.152,1.683 0.156,-0.871 0.153,-0.699 0.156,0.148 0.152,-1.511 0.156,1.379 0.157,0.289 0.152,0.332 0.156,0.761 0.153,0.028 0.156,1.25 0.152,-0.156 0.156,2.015 0.153,-0.16 0.156,0.773 0.152,-1.785 0.157,1.02 0.156,-1.571 0.152,1.387 0.156,1.883 0.153,0.816 0.156,1.043 0.152,2.051 0.157,2.899 0.152,-0.032 0.156,-1.922 0.153,-1.156 0.156,1.5 0.152,-0.476 0.156,1.336 0.157,-0.84 0.152,1.336 0.156,1.281 0.153,1.504 0.156,0.949 0.152,-1.848 0.156,0.524 h 0.153 l 0.156,0.637 0.152,-1.004 0.157,-1.645 0.156,0.227 0.152,-1.133 0.156,0.547 0.153,-1.844 0.156,-1.105 0.152,-1.786 0.157,-1.117 0.152,-0.457 0.156,2.992 0.153,1.004 0.156,-0.91 0.156,0.641 0.152,0.343 0.157,0.559 0.152,-2.773 0.156,1.066 0.153,0.625 0.156,-0.141 0.152,-0.472 0.156,-0.43 0.153,-0.035 0.156,2.336 0.156,-0.723 0.153,-0.965 0.156,0.676 0.152,-1.226 0.156,1.132 0.153,-0.75 0.156,0.969 0.152,2.711 0.157,-2.016 0.152,-1.253 0.156,-0.352 0.157,-2.566 0.152,2.558 0.156,-0.328 0.152,3.824 0.157,-2.488 0.152,1.324 0.156,2.024 0.153,1.32 0.156,1.789 0.152,3.133 0.156,1.508 0.157,0.129 0.152,-1.614 0.156,-0.789 0.153,1.922 0.156,0.934 0.152,-3.282 0.157,-0.793 0.152,2 0.156,-4.437 0.152,-0.918 0.157,-1.516 0.156,-1.902 0.152,-0.488 0.157,-0.231 0.152,1.496 0.156,2.032 0.152,-4.161 0.157,0.973 0.152,-1.613 0.156,-1.699 0.153,-2.754 0.156,-3.129 0.156,-1.27 0.153,-2.113 0.156,1.723 0.152,-1.211 0.156,-2.114 0.153,-0.503 0.156,0.57 0.152,-0.512 0.157,0.785 0.152,0.703 0.156,-2.027 0.156,-3.652 0.153,2.687 0.156,2.504 0.152,1.586 0.157,-0.648 0.152,1.339 0.156,-0.761 0.153,-0.508 0.156,0.59 0.152,0.777 0.156,2.051 0.157,-1.234 0.152,-3.665 0.156,0.563 0.153,2.109 0.156,0.981 0.152,-1.184 0.156,-1.383 0.153,-4.504 0.156,2.129 0.152,-0.214 0.157,0.207 0.156,1.949 0.152,0.969 0.156,2.066 0.153,-0.574 0.156,-1.899 0.152,2.578 0.157,0.629 0.152,-2.511 0.156,2.625 0.153,-2.68 0.156,2.332 0.156,1.82 0.152,0.465 0.157,1.383 0.152,-1.508 0.156,0.684 0.153,-1.313 0.156,0.899 0.152,-0.684 0.156,-3.09 0.153,-2.5 0.156,-0.797 0.156,-0.449 0.153,-2.879 0.156,1.465 0.152,-1.203 0.156,0.789 0.153,-4.125 0.156,0.379 0.152,0.074 0.157,-1.707 0.152,-1.086 0.156,1.863 0.156,0.379 0.153,-0.777 0.156,2.652 0.152,1.051 0.157,0.297 0.152,1.523 0.156,1.399 0.153,-0.84 0.156,0.418 0.152,0.332 0.156,-2.223 0.157,-0.617 0.152,-2.207 0.156,-1.812 0.153,-1.211 0.156,0.398 0.152,-0.879 0.156,-0.902 0.153,-4.277 0.156,0.757 0.152,-2.359 0.157,-0.352 0.152,1.164 0.156,-3.203 0.157,-1.023 0.152,2.906 0.156,0.785 0.152,-0.074 0.157,3.422 0.152,-3.023 0.156,-1.364 0.153,0.676 0.156,0.656 0.152,-0.66 0.156,1.477 0.157,0.754 0.152,-0.223 0.156,-0.285 0.153,-2.039 0.156,-0.762 0.152,0.102 0.157,0.503 0.152,-2.214 0.156,1.027 0.152,-1.043 0.157,-0.613 0.156,-0.473 0.152,-1.625 0.157,1.336 0.152,-0.113 0.156,0.203 0.152,3.543 0.157,-0.903 0.152,-2.777 0.156,1.844 0.153,-2.84 0.156,-0.453 0.156,-2.391 0.153,1.289 0.156,-1.242 0.152,0.836 0.156,1.004 0.153,-0.738 0.156,-2.274 0.152,-0.633 0.157,0.708 0.152,-2.172 0.156,0.379 0.156,-1.446 0.153,1.946 0.156,-1.372 0.152,1.2 0.157,0.504 0.152,2.125 0.156,-5.891 0.153,1.871 0.156,-0.434 0.152,-0.273 0.156,1.32 0.157,-0.543 0.152,-1.195 0.156,-1.375 0.153,3.547 0.156,1.363 0.152,0.153 0.156,-0.012 0.153,0.711 0.156,-0.969 0.152,-0.176 0.157,1.375 0.156,-1.617 0.152,0.434 0.156,-0.274 0.153,-3.605 0.156,-0.442 0.152,1.469 0.157,0.348 0.152,-0.387 0.156,1.707 0.153,3.043 0.156,0.652 0.156,-0.992 0.152,1.391 0.157,-1.238 0.152,-2.614 0.156,-0.437 0.153,-2.903 0.156,-0.574 0.152,0.82 0.156,0.141 0.153,-4.199 0.156,-1.875 0.156,-0.68 0.153,-0.48 0.156,-0.231 0.152,-0.621 0.156,-2.59 0.153,-1.129 0.156,-0.265 0.152,3.812 0.157,-0.195 0.152,-0.668 0.156,-0.832 0.156,-0.465 0.153,-0.297 0.156,3.149 0.152,-2.586 0.157,-0.699 0.152,-0.832 0.156,-1.375 0.153,-0.79 0.156,3.122 0.152,1.664 0.156,-1.864 0.157,-3.593 0.152,0.711 0.156,-0.786 0.153,-3.461 0.156,0.2 0.152,-2.368 0.156,0.731 0.153,1.059 0.156,0.171 0.152,0.539 0.157,-1.476 0.156,1.168 0.152,1.422 0.157,-0.805 0.152,-3.555 0.156,0.618 0.152,1.675 0.157,0.75 0.152,0.676 0.156,-0.324 0.153,0.004 0.156,0.469 0.156,3.242 0.152,1.113 0.157,2.473 0.152,0.359 0.156,1.016 0.153,0.164 0.156,0.246 0.152,-1.625 0.157,1.703 0.152,0.965 0.156,1.312 0.156,0.102 0.153,-0.617 0.156,-3.668 0.152,-1.563 0.157,-0.945 0.152,-0.297 0.156,0.359 0.152,-1.382 0.157,-3.61 0.152,-1.015 0.156,-2.629 0.157,-2.852 0.152,0.664 0.156,0.488 0.153,0.727 0.156,-0.77 0.152,0.399 0.156,1.008 0.153,-2.797 0.156,1.004 0.152,0.398 0.157,0.93 0.152,-1.16 0.156,-0.16 0.156,-0.489 0.153,0.285 0.156,-0.16 0.152,1.926 0.157,1.856 0.152,-0.563 0.156,-2.953 0.153,1.625 0.156,0.07 0.152,0.867 0.156,-0.5 0.157,0.653 0.152,0.758 0.156,-0.985 0.153,2.754 0.156,1.586 0.152,0.52 0.156,0.597 0.153,0.672 0.156,0.192 0.152,-1.125 0.157,0.23 0.156,0.461 0.152,-1.379 0.156,2.871 0.153,1.774 0.156,-0.274 0.152,0.25 0.157,-0.715 0.152,1.403 0.156,-0.094 0.153,-3.863 0.156,-1.192 0.156,-0.25 0.152,1.379 0.157,-0.023 0.152,-0.786 0.156,-1.558 0.153,-3.199 0.156,-0.727 0.152,1.625 0.156,1.641 0.153,-0.352 0.156,-0.117 0.156,-0.605 0.153,0.046 0.156,-1.519 0.152,-0.086 0.156,1.062 0.153,0.25 0.156,0.188 0.152,-1.746 0.157,2.566 0.152,3.051 0.156,-0.441 0.156,-4.368 0.153,-1.773 0.156,3.387 0.152,-0.598 0.157,-0.324 0.152,2.84 0.156,-0.071 0.153,-1.089 0.156,-0.04 0.152,-0.515 0.156,-0.461 0.157,-1.981 0.152,-1.418 0.156,0.368 0.153,1.007 0.156,1.969 0.152,-0.254 0.156,1.938 0.153,3.851 0.156,1.465 0.152,0.043 0.157,-0.004 0.156,1.77 0.152,0.262 0.157,0.757 0.152,1.66 0.156,-1.417 0.152,2.476 0.157,1.051 0.152,-0.266 0.156,-0.109 0.153,-1.383 0.156,-1.246 0.156,1.559 0.152,0.246 0.157,0.754 0.152,-1.336 0.156,-0.489 0.153,3.145 0.156,3.535 0.152,-0.66 0.157,0.094 0.152,0.574 0.156,4.89 0.156,-0.988 0.153,0.91 0.156,2.368 0.152,-0.774 0.157,-1.609 0.152,-2.051 0.156,0.262 0.152,-0.942 0.157,1.196 0.152,-0.122 0.156,-1.765 0.157,-0.969 0.152,-0.582 0.156,1.984 0.153,-1.468 0.156,-0.539 0.152,-0.895 0.156,-0.578 0.153,-2.496 0.156,0.242 0.152,0.492 0.157,-0.023 0.156,1.84 0.152,1.808 0.156,0.856 0.153,-1.348 0.156,-0.168 0.152,1.149 0.157,0.343 0.152,-0.273 0.156,1.219 0.153,1.035 0.156,-1.43 0.156,-0.281 0.152,0.164 0.157,2.098 0.152,0.636 0.156,-0.574 0.153,1.32 0.156,0.93 0.152,-1.168 0.156,0.762 0.153,1.476 0.156,0.938 0.156,-3.278 0.153,-0.707 0.156,3.313 0.152,-1.039 0.156,0.723 0.153,-3.106 0.156,1.309 0.152,0.324 0.157,-1.922 0.152,-1.773 0.156,-0.778 0.153,2.317 0.156,-0.942 0.156,0.074 0.152,0.262 0.157,-0.097 0.152,0.875 0.156,-0.098 0.153,-0.656 0.156,1.367 0.152,1.808 0.156,1.399 0.153,0.254 0.156,-0.239 0.156,1.645 0.153,4.055 0.156,0.824 0.152,0.883 0.156,2.832 0.153,-0.918 0.156,0.57 0.152,-0.129 0.157,-0.176 0.152,1.223 0.156,-1.391 0.156,0.868 0.153,-2.45 0.156,0.602 0.152,-0.231 0.157,-1.238 0.152,-0.902 0.156,-0.336 0.153,-1.961 0.156,-2.008 0.152,-0.39 0.156,0.98 0.157,2.719 0.152,-0.614 0.156,-0.253 0.153,2.746 0.156,0.422 0.152,-0.188 0.156,-1.594 0.153,-0.027 0.156,-1.914 0.152,-4.629 0.157,2.309 0.156,1.722 0.152,-0.437 0.157,-3.965 0.152,-1.848 0.156,1.906 0.152,-0.476 0.157,-0.449 0.152,0.261 0.156,-0.793 0.153,0.684 0.156,0.973 0.156,-2.926 0.152,0.953 0.157,0.285 0.152,0.531 0.156,-0.437 0.153,3.602 0.156,-0.235 0.152,0.465 0.157,0.227 0.152,-0.293 0.156,-0.301 0.156,-1.199 0.153,0.621 0.156,0.636 0.152,1.012 0.157,-2.266 0.152,0.696 0.156,-0.594 0.152,2.367 0.157,-0.804 0.152,0.062 0.156,1.746 0.157,0.254 0.152,-2.324 0.156,0.031 0.153,-1.078 0.156,-0.641 0.152,0.008 0.156,-2.648 0.153,1.785 0.156,-1.985 0.152,-2.91 0.157,-2.976 0.156,0.164 0.152,0.683 0.156,-2.105 0.153,-0.102 0.156,-1.179 0.152,0.383 0.157,1.601 0.152,-0.59 0.156,-1.578 0.153,-0.18 0.156,-0.546 0.156,0.23 0.152,-0.535 0.157,1.418 0.152,2.355 0.156,-1.008 0.153,-2.445 0.156,0.133 0.152,-1.352 0.156,-0.82 0.153,-1.418 0.156,-0.023 0.156,-3.207 0.153,0.496 0.156,1.679 0.152,0.016 0.156,1.234 0.153,0.59 0.156,0.676 0.152,1.895 0.157,0.449 0.152,1.531 0.156,-0.684 0.156,-0.542 0.153,-0.657 0.156,0.614 0.152,1.148 0.157,-0.699 0.152,2.277 0.156,-2.141 0.153,-0.976 0.156,2.098 0.152,-0.122 0.156,-1.953 0.157,-0.222 0.152,-0.563 0.156,2.535 0.153,-2.05 0.156,0.886 0.152,1.117 0.156,-0.593 0.153,3.277 0.156,1.738 0.152,0.996 0.157,1.059 0.156,1.188 0.152,1.035 0.156,0.258 0.153,0.71 0.156,0.153 0.152,0.144 0.157,1.102 0.152,1.5 0.156,3.328 0.153,-1.559 0.156,1.539 0.156,1.719 0.152,-0.308 0.157,0.906 0.152,0.785 0.156,0.383 0.153,-5.32 0.156,1.269 0.152,1.313 0.156,1.316 0.153,-0.867 0.156,-0.797 0.152,2.652 0.157,-2.66 0.156,0.899 0.152,-0.153 0.157,-1.32 0.152,0.074 0.156,-1.66 0.152,-0.328 0.157,-1.164 0.152,-1.946 0.156,0.461 0.153,1.145 0.156,-0.524 0.156,0.446 0.152,3.422 0.157,-1.539 0.152,0.304 0.156,-2.847 0.153,-0.625 0.156,-0.477 0.152,3.391 0.157,-1.809 0.152,-0.48 0.156,-2.371 0.156,1.941 0.153,0.07 0.156,-0.527 0.152,2.605 0.157,-0.843 0.152,1.894 0.156,-0.195 0.152,-0.184 0.157,1.477 0.152,-2.848 0.156,-0.902 0.157,1.078 0.152,0.902 0.156,0.719 0.153,-0.457 0.156,-0.152 0.152,1.047 0.156,-3.446 0.153,-1.086 0.156,0.094 0.152,2.609 0.157,0.45 0.156,-2.09 0.152,0.23 0.156,-1.711 0.153,-0.8 0.156,0.664 0.152,-0.832 0.157,1.023 0.152,-0.035 0.156,2.055 0.153,-0.286 0.156,-1.023 0.156,3.07 0.152,0.703 0.157,0.473 0.152,1.106 0.156,0.593 0.153,-1.273 0.156,-3.125 0.152,1.117 0.156,0.176 0.153,-0.668 0.156,1.715 0.156,-0.215 0.153,1.844 0.156,0.55 0.152,-0.402 0.156,-0.406 0.153,0.785 0.156,2.707 0.152,1.754 0.157,1.691 0.152,1.024 0.156,-3.063 0.156,0.051 0.153,-0.992 0.156,-0.028 0.152,0.465 0.157,-1.472 0.152,0.187 0.156,1.727 0.153,0.98 0.156,-1.129 0.152,-1.551 0.156,3.395 0.157,-0.961 0.152,1.399 0.156,-0.735 0.153,2.676 0.156,-0.465 0.152,1.492 0.156,0.422 0.153,0.067 0.156,1.269 0.152,1.68 0.157,-1.817 0.156,0.133 0.152,2.801 0.156,1.672 0.153,0.375 0.156,-2.039 0.152,0.949 0.157,-1.691 0.152,0.312 0.156,0.695 0.153,3.922 0.156,-2.699 0.156,1.258 0.152,-1.238 0.157,-2.45 0.152,-1.074 0.156,-0.812 0.153,0.418 0.156,1.086 0.152,-0.922 0.156,1.277 0.153,-1.41 0.156,-1.531 0.156,1.296 0.153,-2.226 0.156,-0.031 0.152,1.941 0.157,-0.562 0.152,-0.961 0.156,2.347 0.152,-1.672 0.157,-0.527 0.152,0.824 0.156,0.231 0.157,2.347 0.152,-0.964 0.156,-1.426 0.152,-0.746 0.157,2.222 0.152,-1.054 0.156,-0.118 0.153,-0.015 0.156,-1.184 0.152,-0.152 0.157,0.926 0.156,-0.012 0.152,0.918 0.156,-2.879 0.153,-0.277 0.156,-1.746 0.152,-1.204 0.157,1.258 0.152,-0.765 0.156,0.504 0.152,-3.504 0.157,1.57 0.156,0.082 0.152,-0.402 0.157,-1.028 0.152,1.129 0.156,-0.176 0.153,-0.113 0.156,0.242 0.152,2.438 0.156,0.269 0.153,-0.812 0.156,0.613 0.152,2.18 0.157,0.781 0.156,-0.527 0.152,2.097 0.156,-2.222 0.153,-3.555 0.156,1.645 0.152,-1.176 0.157,-1.445 0.152,0.492 0.156,0.074 0.153,-1.656 0.156,0.246 0.156,1.832 0.152,-1.102 0.157,1.297 0.152,0.981 0.156,-1.36 0.153,-1.722 0.156,-2.555 0.152,-1.445 0.156,-1.84 0.153,2.144 0.156,1.793 0.156,-0.855 0.153,-1.028 0.156,-0.398 0.152,1.203 0.156,-1.723 0.153,-2.039 0.156,0.301 0.152,0.313 0.157,-2.344 0.152,-1.836 0.156,-3.773 0.156,2.292 0.153,1.575 0.156,-0.391 0.152,1.922 0.157,-0.309 0.152,-2.082 0.156,1.028 0.153,-0.602 0.156,-0.832 0.152,-1.148 0.156,1.785 0.157,-0.086 0.152,-1.828 0.156,-2.27 0.153,0.016 0.156,-1.625 0.152,0.281 0.156,-0.691 0.153,2.078 0.156,-0.817 0.152,1.219 0.157,-1.258 0.156,-1.273 0.152,-0.574 0.156,1.855 0.153,-1.172 0.156,0.875 0.152,2.137 0.157,1.402 0.152,-1.047 0.156,-4.375 0.153,0.278 0.156,-1.246 0.156,0.129 0.152,-0.489 0.157,0.977 0.152,-0.168 0.156,-0.164 0.153,0.48 0.156,3.5 0.152,-0.605 0.156,-3.61 0.153,-2.289 0.156,0.071 0.156,2.293 0.153,0.504 0.156,2.285 0.152,-1.883 0.157,1.894 0.152,4.891 0.156,-2.496 0.152,-1.293 0.157,-0.844 0.152,1.75 0.156,1.477 0.157,3.512 0.152,-1.09 0.156,1.011 0.152,1.707 0.157,-2.316 0.152,1.977 0.156,1.386 0.153,-1.422 0.156,-0.992 0.152,-2.133 0.157,1.204 0.156,-2.336 0.152,2.773 0.156,-0.109 0.153,-0.817 0.156,-0.465 0.152,2.614 0.157,-2.059 0.152,-1.75 0.156,-1.637 0.152,0.317 0.157,0.258 0.156,0.711 0.152,3.144 0.157,-1.336 0.152,0.793 0.156,0.668 0.153,-3.5 0.156,-0.734 0.152,1.148 0.156,-2.387 0.153,0.508 0.156,-1.918 0.156,-1.461 0.153,-0.972 0.156,2.039 0.152,-0.539 0.156,-0.692 0.153,-0.379 0.156,0.188 0.152,-3.316 0.157,-2.958 0.152,-0.105 0.156,-0.945 0.156,-2.375 0.153,-3.672 0.156,-0.453 0.152,0.488 0.157,-2.93 0.152,-1.48 0.156,1.844 0.153,0.211 0.156,-2.36 0.152,-0.07 0.156,2.769 0.157,0.868 0.152,-1.137 0.156,2.183 0.153,3.004 0.156,0.688 0.152,0.758 0.156,0.464 0.153,2.836 0.156,0.114 0.152,2.394 0.157,-1.344 0.156,1.399 0.152,-0.981 0.156,0.543 0.153,-0.066 0.156,-0.977 0.152,-1.675 0.157,-2.473 0.152,-2.102 0.156,0.993 0.153,5.195 0.156,-1.356 0.152,-3.621 0.156,-1.812 0.157,3.734 0.152,-0.953 0.156,-2.39 0.153,2.839 0.156,2.383 0.152,2.008 0.156,2.781 0.153,-1.535 0.156,1.149 0.152,0.062 0.157,1.902 0.156,-2.297 0.152,1.352 0.156,-0.117 0.153,-1.883 0.156,-0.57 0.152,-3.778 0.157,0.403 0.152,0.367 0.156,0.344 0.153,-0.188 0.156,1.055 0.156,-4.258 0.152,-0.5 0.157,-0.203 0.152,-0.133 0.156,2.992 0.153,-0.906 0.156,-0.664 0.152,0.941 0.156,0.489 0.153,0.562 0.156,-1.062 0.156,1.324 0.153,1.211 0.156,-0.926 0.152,1.199 0.157,0.446 0.152,-0.434 0.156,-0.879 0.152,1.406 0.157,-2.312 0.152,-0.395 0.156,2.008 0.157,1.352 0.152,0.211 0.156,-0.141 0.152,0.203 0.157,3.168 0.152,-0.574 0.156,1.031 0.153,-1.176 0.156,-1.261 0.152,-1.754 0.157,2.578 0.156,1.195 0.152,-0.519 0.156,0.058 0.153,0.176 0.156,2.207 0.152,-1.152 0.157,-0.809 0.152,1.156 0.156,1.157 0.152,1.554 0.157,-0.394 0.156,1.929 0.152,1.946 0.157,-0.512 0.152,-0.699 0.156,0.672 0.153,2.91 0.156,0.808 0.152,1.473 0.156,0.531 0.153,-0.804 0.156,-0.102 0.156,-0.699 0.153,0.785 0.156,-1.316 0.152,-0.633 0.156,-2.645 0.153,-0.613 0.156,0.555 0.152,-0.864 0.157,-0.203 0.152,2.215 0.156,-2.312 0.156,1.308 0.153,-0.219 0.156,-2.882 0.152,0.64 0.157,-1.558 0.152,1.855 0.156,-1.836 0.153,-0.965 0.156,0.93 0.152,1.719 0.156,3.558 0.157,-2.582 0.152,1.696 0.156,-0.785 0.153,0.683 0.156,2.016 0.152,1.558 0.156,-0.703 0.153,0.93 0.156,1.547 0.152,0.066 0.157,0.195 0.156,1.375 0.152,-0.757 0.156,0.257 0.153,-0.425 0.156,3.203 0.152,2.203 0.157,-1.332 0.152,-0.957 0.156,0.867 0.153,-1.535 0.156,0.324 0.156,-1.035 0.152,-0.504 0.157,-0.074 0.152,1.484 0.156,-0.183 0.153,0.05 0.156,-1.527 0.152,1.41 0.156,-0.988 0.153,0.844 0.156,0.164 0.156,-2.364 0.153,-0.476 0.156,-0.203 0.152,-0.988 0.156,-1.786 0.153,-1.015 0.156,0.062 0.152,-0.472 0.157,1.906 0.152,-1.684 0.156,-0.883 0.157,-1.035 0.152,-1.437 0.156,1.91 0.152,0.355 0.157,-1.769 0.152,0.094 0.156,-0.028 0.153,0.336 0.156,-0.679 0.152,-2.504 0.156,1.125 0.157,-0.18 0.152,-0.008 0.156,0.078 0.153,1.082 0.156,1.633 0.152,1.856 0.157,0.445 0.152,-0.082 0.156,-2.942 0.152,-1.171 0.157,0.906 0.152,3.113 0.156,-0.941 0.157,0.757 0.152,-0.003 0.156,-1.379 0.152,-2.039 0.157,0.238 0.152,0.914 0.156,-1.555 0.153,-0.258 0.156,1.665 0.152,-0.825 0.157,-3.625 0.156,-0.218 0.152,1.039 0.156,1.621 0.153,-1.586 0.156,-0.028 0.152,0.274 0.157,1.351 0.152,0.434 0.156,-0.098 0.152,-0.066 0.157,-0.27 0.156,1.422 0.152,-0.769 0.157,1.535 0.152,-0.137 0.156,2.289 0.153,3.145 0.156,1.222 0.152,1.04 0.156,3.042 0.153,3.247 0.156,-2.766 0.156,-1.082 0.153,1.226 0.156,-1.925 0.152,0.273 0.156,-1.117 0.153,-0.879 0.156,-1.035 0.152,-0.531 0.157,1.847 0.152,1.325 0.156,1.796 0.156,-2.644 0.153,0.351 0.156,-0.05 0.152,-0.094 0.157,-0.039 0.152,0.922 0.156,-0.176 0.153,-1.063 0.156,-0.363 0.152,-2.894 0.156,-2.137 0.157,-0.414 0.152,0.82 0.156,0.258 0.153,1.738 0.156,-1.898 0.152,-0.75 0.156,1.004 0.153,-0.801 0.156,0.293 0.152,-0.57 0.157,1.007 0.156,-1.054 0.152,-1.965 0.156,-0.363 0.153,2.074 0.156,2.625 0.152,-2.18 0.157,0.063 0.152,0.789 0.156,-2.246 0.153,0.195 0.156,-0.836 0.156,-1.199 0.152,-1.02 0.157,0.02 0.152,0.562 0.156,3.219 0.153,0.625 0.156,-0.918 0.152,1.41 0.156,-2.406 0.153,-0.637 0.156,-1.597 0.156,0.683 0.153,1.078 0.156,0.762 0.152,-0.578 0.156,1.027 0.153,3.59 0.156,-0.609 0.152,1.125 0.157,-0.422 0.152,0.019 0.156,-2.093 0.157,-1.684 0.152,-2.66 0.156,0.019 0.152,-1.125 0.157,1.524 0.152,-0.34 0.156,0.562 0.153,0.579 0.156,-1.547 0.152,2.605 0.156,-0.488 0.157,-3.484 0.152,-0.762 0.156,0.336 0.153,1.883 0.156,1.437 0.152,0.758 0.157,-1.231 0.152,-2.269 0.156,-0.559 0.152,-1.984 0.157,-2.133 0.156,-1.289 0.152,-1.898 0.157,-2.633 0.152,2.898 0.156,-0.183 0.152,3.406 0.157,-0.477 0.152,0.864 0.156,0.007 0.153,1.618 0.156,0.781 0.156,-0.274 0.153,-2.363 0.156,-0.844 0.152,3.286 0.156,0.386 0.153,2.266 0.156,-2.266 0.152,-2.527 0.157,-2.594 0.152,-0.023 0.156,-0.344 0.156,-1.773 0.153,0.039 0.156,-3.524 0.152,-0.199 0.157,-2.027 0.152,-1.09 0.156,0.41 0.153,0.008 0.156,2.586 0.152,-0.219 0.156,-0.414 0.153,0.961 0.156,1.301 0.156,-0.016 0.153,-0.172 0.156,-2.629 0.152,-0.863 0.156,0.805 0.153,1.136 0.156,-0.953 0.152,-2.687 0.157,-3.571 0.152,-1.484 0.156,2.394 0.156,-1.89 0.153,-0.059 0.156,0.785 0.152,2.211 0.157,-0.246 0.152,-1.496 0.156,2.684 0.153,-0.571 0.156,-1.332 0.152,1.969 0.156,-1.972 0.157,-0.504 0.152,0.097 0.156,0.801 0.153,-2.73 0.156,0.781 h 0.152 l 0.156,-2.906 0.153,-1.649 0.156,0.516 0.152,-1.766 0.157,3.309 0.156,1.215 0.152,1.074 0.156,-0.176 0.153,0.797 0.156,0.266 0.152,-1.325 0.157,0.055 0.152,1.117 0.156,2.246 0.153,0.223 0.156,0.254 0.156,-0.711 0.152,-0.406 0.157,-2.567 0.152,-0.386 0.156,-2.145 0.153,1.16 0.156,0.824 0.152,-0.382 0.156,0.156 0.153,-1.231 0.156,-1.293 0.156,-0.898 0.153,-2.961 0.156,-3.512 0.152,-2.547 0.156,-1.929 0.153,2.547 0.156,0.695 0.152,0.43 0.157,2.476 0.152,-0.621 0.156,-1.285 0.157,-2.902 0.152,0.91 0.156,-0.364 0.152,1.567 0.157,-0.285 0.152,1.175 0.156,-1.246 0.153,-2.496 0.156,0.66 0.152,-1.945 0.156,-1.894 0.157,-5.172 0.152,-0.16 0.156,1.179 0.153,0.129 0.156,-1.277 0.152,2.617 0.157,-1.125 0.152,-0.707 0.156,4.555 0.152,-2.563 0.157,2.215 0.156,2.187 0.152,1.676 0.157,0.469 0.152,2.887 0.156,-0.407 0.152,-0.66 0.157,-0.132 0.152,-0.711 0.156,-0.379 0.153,1.73 0.156,-1.168 0.156,-1.668 0.153,-1.238 0.156,2.523 0.152,0.555 0.156,-0.105 0.153,-3.426 0.156,-0.328 0.152,0.621 0.157,-0.281 0.152,0.453 0.156,-1.325 0.156,-1.019 0.153,-2.098 0.156,2.16 0.152,-0.574 0.157,0.41 0.152,0.805 0.156,1.543 0.153,-1.98 0.156,2.25 0.152,1.019 0.156,-1.762 0.157,-2.933 0.152,-1.391 0.156,-1.41 0.153,2.551 0.156,-2.496 0.152,1.476 0.156,-1.152 0.153,-1.559 0.156,1.731 0.152,-0.551 0.157,-0.27 0.156,-1.332 0.152,-1.14 0.156,0.89 0.153,1.649 0.156,-2.602 0.152,2.246 0.157,-1.203 0.152,-1.129 0.156,0.914 0.153,-0.621 0.156,-1.484 0.156,1.18 0.152,1.671 0.157,2.43 0.152,1.985 0.156,-0.637 0.153,-4 0.156,-3.676 0.152,0.934 0.156,-0.739 0.153,-1.797 0.156,-0.394 0.156,-0.18 0.153,0.008 0.156,-1.059 0.152,-1.921 0.156,-0.942 0.153,0.528 0.156,2.375 0.152,-0.415 0.157,1.372 0.152,1.128 0.156,-0.617 0.153,-2.187 0.156,-0.449 0.156,1.187 0.152,-0.187 0.157,-2.575 0.152,-1.539"
       style="fill:none;stroke:#000000;stroke-width:2.13396;stroke-linecap:butt;stroke-linejoin:round;stroke-miterlimit:10;stroke-dasharray:none;stroke-opacity:1"
       transform="scale(1.3333333)"
       clip-path="url(#clipPath15)" /><path
       id="path16"
       d="M 60.789,113.363 H 349.652"
       style="fill:none;stroke:#a9a9a9;stroke-width:1.06698;stroke-linecap:butt;stroke-linejoin:round;stroke-miterlimit:10;stroke-dasharray:none;stroke-opacity:0.6"
       transform="scale(1.3333333)"
       clip-path="url(#clipPath17)" /><path
       id="path18"
       d="M 60.789,31.387 H 349.652"
       style="fill:none;stroke:#000000;stroke-width:1.06698;stroke-linecap:butt;stroke-linejoin:round;stroke-miterlimit:10;stroke-dasharray:4.26791, 4.26791;stroke-dashoffset:0;stroke-opacity:1"
       transform="scale(1.3333333)"
       clip-path="url(#clipPath19)" /><text
       id="text19"
       xml:space="preserve"
       transform="matrix(1.3333333,0,0,1.3333333,91.875,36.307292)"><tspan
         style="font-variant:normal;font-weight:normal;font-size:9px;font-family:Arial;writing-mode:lr-tb;fill:#000000;fill-opacity:1;fill-rule:nonzero;stroke:none"
         x="0 6.4980001 11.502 16.506001 18.504 23.004 28.007999 30.500999 35.748001 38.241001 43.244999 48.249001 50.742001"
         y="0"
         sodipodi:role="line"
         id="tspan19">Choice = Left</tspan></text><path
       id="path20"
       d="M 60.789,195.34 H 349.652"
       style="fill:none;stroke:#000000;stroke-width:1.06698;stroke-linecap:butt;stroke-linejoin:round;stroke-miterlimit:10;stroke-dasharray:4.26791, 4.26791;stroke-dashoffset:0;stroke-opacity:1"
       transform="scale(1.3333333)"
       clip-path="url(#clipPath21)" /><text
       id="text21"
       xml:space="preserve"
       transform="matrix(1.3333333,0,0,1.3333333,89.932292,274.58854)"><tspan
         style="font-variant:normal;font-weight:normal;font-size:9px;font-family:Arial;writing-mode:lr-tb;fill:#000000;fill-opacity:1;fill-rule:nonzero;stroke:none"
         x="0 6.4980001 11.502 16.506001 18.504 23.004 28.007999 30.500999 35.748001 38.241001 44.738998 46.737 51.741001 56.744999"
         y="0"
         sodipodi:role="line"
         id="tspan21">Choice = Right</tspan><tspan
         style="font-variant:normal;font-weight:normal;font-size:9px;font-family:Arial;writing-mode:lr-tb;fill:#000000;fill-opacity:1;fill-rule:nonzero;stroke:none"
         x="181.88281"
         y="-83.636719"
         id="tspan22">v</tspan></text><text
       id="text22"
       xml:space="preserve"
       transform="matrix(1.3333333,0,0,1.3333333,338.44271,165.25)"><tspan
         style="font-variant:normal;font-weight:normal;font-size:6.3px;font-family:Arial;writing-mode:lr-tb;fill:#000000;fill-opacity:1;fill-rule:nonzero;stroke:none"
         x="0 1.3986 4.9014001 6.6465001"
         y="0"
         sodipodi:role="line"
         id="tspan23">left</tspan></text><text
       id="text23"
       xml:space="preserve"
       transform="matrix(1.3333333,0,0,1.3333333,352.42708,163.07292)"><tspan
         style="font-variant:normal;font-weight:normal;font-size:9px;font-family:Symbol;writing-mode:lr-tb;fill:#000000;fill-opacity:1;fill-rule:nonzero;stroke:none"
         x="0"
         y="0"
         id="tspan24">=</tspan><tspan
         style="font-variant:normal;font-weight:normal;font-size:9px;font-family:Arial;writing-mode:lr-tb;fill:#000000;fill-opacity:1;fill-rule:nonzero;stroke:none"
         x="7.0110002"
         y="0"
         id="tspan25">1</tspan><tspan
         style="font-variant:normal;font-weight:normal;font-size:9px;font-family:Arial;writing-mode:lr-tb;fill:#000000;fill-opacity:1;fill-rule:nonzero;stroke:none"
         x="-13.824216"
         y="13.308597"
         id="tspan26">v</tspan></text><text
       id="text26"
       xml:space="preserve"
       transform="matrix(1.3333333,0,0,1.3333333,339.99479,182.99479)"><tspan
         style="font-variant:normal;font-weight:normal;font-size:6.3px;font-family:Arial;writing-mode:lr-tb;fill:#000000;fill-opacity:1;fill-rule:nonzero;stroke:none"
         x="0 2.0978999 3.4965 6.9993 10.5021"
         y="0"
         sodipodi:role="line"
         id="tspan27">right</tspan></text><text
       id="text27"
       xml:space="preserve"
       transform="matrix(1.3333333,0,0,1.3333333,359.11458,180.81771)"><tspan
         style="font-variant:normal;font-weight:normal;font-size:9px;font-family:Symbol;writing-mode:lr-tb;fill:#000000;fill-opacity:1;fill-rule:nonzero;stroke:none"
         x="0"
         y="0"
         id="tspan28">=</tspan><tspan
         style="font-variant:normal;font-weight:normal;font-size:9px;font-family:Arial;writing-mode:lr-tb;fill:#000000;fill-opacity:1;fill-rule:nonzero;stroke:none"
         x="7.0110002"
         y="0"
         id="tspan29">1</tspan><tspan
         style="font-variant:normal;font-weight:normal;font-size:9px;font-family:Arial;writing-mode:lr-tb;fill:#000000;fill-opacity:1;fill-rule:nonzero;stroke:none"
         x="-18.476559"
         y="15.359373"
         id="tspan30">d</tspan><tspan
         style="font-variant:normal;font-weight:normal;font-size:9px;font-family:Symbol;writing-mode:lr-tb;fill:#000000;fill-opacity:1;fill-rule:nonzero;stroke:none"
         x="-11.393559"
         y="15.359373"
         id="tspan31">=</tspan><tspan
         style="font-variant:normal;font-weight:normal;font-size:9px;font-family:Arial;writing-mode:lr-tb;fill:#000000;fill-opacity:1;fill-rule:nonzero;stroke:none"
         x="-4.373559 0.63044101 3.123441 8.1274414 13.131441"
         y="15.359373"
         sodipodi:role="line"
         id="tspan32">0.003</tspan><tspan
         style="font-variant:normal;font-weight:normal;font-size:9px;font-family:Symbol;writing-mode:lr-tb;fill:#000000;fill-opacity:1;fill-rule:nonzero;stroke:none"
         x="-18.953121 -11.465121"
         y="27.656244"
         sodipodi:role="line"
         id="tspan33">s=</tspan><tspan
         style="font-variant:normal;font-weight:normal;font-size:9px;font-family:Arial;writing-mode:lr-tb;fill:#000000;fill-opacity:1;fill-rule:nonzero;stroke:none"
         x="-4.4541216 0.54987842 3.0428784 8.0468788"
         y="27.656244"
         sodipodi:role="line"
         id="tspan34">0.02</tspan><tspan
         style="font-variant:normal;font-weight:normal;font-size:9px;font-family:Symbol;writing-mode:lr-tb;fill:#000000;fill-opacity:1;fill-rule:nonzero;stroke:none"
         x="-18.644527 -11.165527"
         y="39.953114"
         sodipodi:role="line"
         id="tspan35">q=</tspan><tspan
         style="font-variant:normal;font-weight:normal;font-size:9px;font-family:Arial;writing-mode:lr-tb;fill:#000000;fill-opacity:1;fill-rule:nonzero;stroke:none"
         x="-4.1545277 0.84947222 3.3424723 8.3464718"
         y="39.953114"
         sodipodi:role="line"
         id="tspan36">0.52</tspan><tspan
         style="font-variant:normal;font-weight:normal;font-size:9px;font-family:Arial;writing-mode:lr-tb;fill:#000000;fill-opacity:1;fill-rule:nonzero;stroke:none"
         x="-18.449215"
         y="52.249985"
         id="tspan37">b</tspan><tspan
         style="font-variant:normal;font-weight:normal;font-size:9px;font-family:Symbol;writing-mode:lr-tb;fill:#000000;fill-opacity:1;fill-rule:nonzero;stroke:none"
         x="-11.357215"
         y="52.249985"
         id="tspan38">=</tspan><tspan
         style="font-variant:normal;font-weight:normal;font-size:9px;font-family:Arial;writing-mode:lr-tb;fill:#000000;fill-opacity:1;fill-rule:nonzero;stroke:none"
         x="-4.3462152 0.65778482 3.1507847 8.1547852"
         y="52.249985"
         sodipodi:role="line"
         id="tspan39">0.02</tspan></text><path
       id="path39"
       d="M 60.789,212.555 V 14.172"
       style="fill:none;stroke:#000000;stroke-width:1.06698;stroke-linecap:butt;stroke-linejoin:round;stroke-miterlimit:10;stroke-dasharray:none;stroke-opacity:1"
       transform="scale(1.3333333)" /><text
       id="text39"
       xml:space="preserve"
       transform="matrix(1.3333333,0,0,1.3333333,53.796875,264.75)"><tspan
         style="font-variant:normal;font-weight:normal;font-size:9px;font-family:Arial;writing-mode:lr-tb;fill:#4d4d4d;fill-opacity:1;fill-rule:nonzero;stroke:none"
         x="0 2.997 8.0010004 10.494"
         y="0"
         sodipodi:role="line"
         id="tspan40">-1.0</tspan><tspan
         style="font-variant:normal;font-weight:normal;font-size:9px;font-family:Arial;writing-mode:lr-tb;fill:#4d4d4d;fill-opacity:1;fill-rule:nonzero;stroke:none"
         x="0 2.997 8.0010004 10.494"
         y="-40.988277"
         sodipodi:role="line"
         id="tspan41">-0.5</tspan><tspan
         style="font-variant:normal;font-weight:normal;font-size:9px;font-family:Arial;writing-mode:lr-tb;fill:#4d4d4d;fill-opacity:1;fill-rule:nonzero;stroke:none"
         x="2.9960909 8.0000906 10.493091"
         y="-81.976555"
         sodipodi:role="line"
         id="tspan42">0.0</tspan><tspan
         style="font-variant:normal;font-weight:normal;font-size:9px;font-family:Arial;writing-mode:lr-tb;fill:#4d4d4d;fill-opacity:1;fill-rule:nonzero;stroke:none"
         x="2.9960909 8.0000906 10.493091"
         y="-122.96483"
         sodipodi:role="line"
         id="tspan43">0.5</tspan><tspan
         style="font-variant:normal;font-weight:normal;font-size:9px;font-family:Arial;writing-mode:lr-tb;fill:#4d4d4d;fill-opacity:1;fill-rule:nonzero;stroke:none"
         x="2.9960909 8.0000906 10.493091"
         y="-163.95311"
         sodipodi:role="line"
         id="tspan44">1.0</tspan></text><path
       id="path44"
       d="m 58.051,195.34 h 2.738"
       style="fill:none;stroke:#333333;stroke-width:1.06698;stroke-linecap:butt;stroke-linejoin:round;stroke-miterlimit:10;stroke-dasharray:none;stroke-opacity:1"
       transform="scale(1.3333333)" /><path
       id="path45"
       d="m 58.051,154.352 h 2.738"
       style="fill:none;stroke:#333333;stroke-width:1.06698;stroke-linecap:butt;stroke-linejoin:round;stroke-miterlimit:10;stroke-dasharray:none;stroke-opacity:1"
       transform="scale(1.3333333)" /><path
       id="path46"
       d="m 58.051,113.363 h 2.738"
       style="fill:none;stroke:#333333;stroke-width:1.06698;stroke-linecap:butt;stroke-linejoin:round;stroke-miterlimit:10;stroke-dasharray:none;stroke-opacity:1"
       transform="scale(1.3333333)" /><path
       id="path47"
       d="m 58.051,72.375 h 2.738"
       style="fill:none;stroke:#333333;stroke-width:1.06698;stroke-linecap:butt;stroke-linejoin:round;stroke-miterlimit:10;stroke-dasharray:none;stroke-opacity:1"
       transform="scale(1.3333333)" /><path
       id="path48"
       d="m 58.051,31.387 h 2.738"
       style="fill:none;stroke:#333333;stroke-width:1.06698;stroke-linecap:butt;stroke-linejoin:round;stroke-miterlimit:10;stroke-dasharray:none;stroke-opacity:1"
       transform="scale(1.3333333)" /><path
       id="path49"
       d="M 60.789,212.555 H 349.652"
       style="fill:none;stroke:#000000;stroke-width:1.06698;stroke-linecap:butt;stroke-linejoin:round;stroke-miterlimit:10;stroke-dasharray:none;stroke-opacity:1"
       transform="scale(1.3333333)" /><path
       id="path50"
       d="m 73.922,215.297 v -2.742"
       style="fill:none;stroke:#333333;stroke-width:1.06698;stroke-linecap:butt;stroke-linejoin:round;stroke-miterlimit:10;stroke-dasharray:none;stroke-opacity:1"
       transform="scale(1.3333333)" /><path
       id="path51"
       d="m 151.156,215.297 v -2.742"
       style="fill:none;stroke:#333333;stroke-width:1.06698;stroke-linecap:butt;stroke-linejoin:round;stroke-miterlimit:10;stroke-dasharray:none;stroke-opacity:1"
       transform="scale(1.3333333)" /><path
       id="path52"
       d="m 228.395,215.297 v -2.742"
       style="fill:none;stroke:#333333;stroke-width:1.06698;stroke-linecap:butt;stroke-linejoin:round;stroke-miterlimit:10;stroke-dasharray:none;stroke-opacity:1"
       transform="scale(1.3333333)" /><path
       id="path53"
       d="m 305.629,215.297 v -2.742"
       style="fill:none;stroke:#333333;stroke-width:1.06698;stroke-linecap:butt;stroke-linejoin:round;stroke-miterlimit:10;stroke-dasharray:none;stroke-opacity:1"
       transform="scale(1.3333333)" /><text
       id="text53"
       xml:space="preserve"
       transform="matrix(1.3333333,0,0,1.3333333,95.223959,298.57292)"><tspan
         style="font-variant:normal;font-weight:normal;font-size:9px;font-family:Arial;writing-mode:lr-tb;fill:#4d4d4d;fill-opacity:1;fill-rule:nonzero;stroke:none"
         x="0 72.224998 77.228996 82.233002 146.96484 151.96884 156.97284 161.97684 224.19385 229.19785 234.20184 239.20584"
         y="0"
         sodipodi:role="line"
         id="tspan53">050010001500</tspan></text><text
       id="text54"
       xml:space="preserve"
       transform="matrix(1.3333333,0,0,1.3333333,243.63542,314.29687)"><tspan
         style="font-variant:normal;font-weight:normal;font-size:10px;font-family:Arial;writing-mode:lr-tb;fill:#000000;fill-opacity:1;fill-rule:nonzero;stroke:none"
         x="0 6.0999999 8.3199997 16.65 22.209999 24.98 28.309999 36.639999 41.639999"
         y="0"
         sodipodi:role="line"
         id="tspan54">Time (ms)</tspan></text><text
       id="text55"
       xml:space="preserve"
       transform="matrix(0,-1.3333333,1.3333333,0,47.338541,178.57813)"><tspan
         style="font-variant:normal;font-weight:normal;font-size:10px;font-family:Arial;writing-mode:lr-tb;fill:#000000;fill-opacity:1;fill-rule:nonzero;stroke:none"
         x="0 6.6599998 11.66 13.88 19.440001 25 30.559999 35.560001"
         y="0"
         sodipodi:role="line"
         id="tspan55">Evidence</tspan></text></g></svg>
